<svg width="985" height="554" viewBox="0 0 985 554" fill="none" xmlns="http://www.w3.org/2000/svg">
<g clip-path="url(#clip0_1_323)">
<path d="M985 -16H-27V554H985V-16Z" fill="#CEE5FF"/>
<mask id="mask0_1_323" style="mask-type:alpha" maskUnits="userSpaceOnUse" x="-27" y="-16" width="1012" height="570">
<path d="M985 -16H-27V554H985V-16Z" fill="#CEE5FF"/>
</mask>
<g mask="url(#mask0_1_323)">
<path d="M886.641 38.2383H540.216V613.626H886.641V38.2383Z" fill="#AFD3FF"/>
<path d="M860.645 66.8865H566.232V434.625H860.645V66.8865Z" fill="#E3F0FF"/>
<path d="M860.646 458.256C838.206 458.613 815.767 458.844 793.328 458.95C770.916 459.168 748.503 459.128 726.011 459.207L726.962 458.256C726.962 467.752 726.962 477.248 726.962 486.745L726.922 515.214C726.724 534.206 726.546 553.199 726.11 572.191C725.655 553.199 725.477 534.206 725.279 515.214V486.745C725.279 477.248 725.279 467.752 725.279 458.256V457.264H726.229C748.642 457.264 771.054 457.264 793.546 457.522C816.038 457.78 838.233 457.899 860.646 458.256Z" fill="#6FAFFF"/>
<path d="M726.169 588.448C748.608 588.091 771.047 587.853 793.486 587.734C815.899 587.516 838.312 587.576 860.804 587.496L859.853 588.448C859.853 579.13 859.853 569.832 859.853 560.514L859.972 532.561C860.15 513.945 860.328 495.309 860.764 476.693C861.219 495.309 861.398 513.945 861.576 532.561L861.695 560.514C861.695 569.832 861.794 579.13 861.695 588.448V589.419H860.744C838.332 589.32 815.919 589.419 793.427 589.162C770.935 588.904 748.582 588.825 726.169 588.448Z" fill="#6FAFFF"/>
<path d="M738.841 537.794H747.395V504.924H738.841V537.794Z" fill="#6FAFFF"/>
<path d="M566.232 458.256C588.671 457.899 611.11 457.667 633.549 457.562C655.962 457.344 678.374 457.383 700.866 457.304H701.816V458.256C701.816 467.752 701.816 477.248 701.816 486.744V515.213C701.618 534.206 701.44 553.199 700.985 572.191C700.549 553.199 700.371 534.206 700.173 515.213V486.744C700.173 477.248 700.173 467.752 700.173 458.256L701.123 459.207C678.711 459.207 656.298 459.207 633.806 458.949C611.315 458.692 588.645 458.612 566.232 458.256Z" fill="#6FAFFF"/>
<path d="M700.708 588.448C678.295 588.825 655.882 589.023 633.39 589.162C610.899 589.3 588.565 589.32 566.073 589.419H565.123V588.448C565.123 579.13 565.123 569.832 565.123 560.514L565.242 532.561C565.42 513.945 565.598 495.309 566.054 476.693C566.489 495.309 566.667 513.945 566.846 532.561L566.964 560.514C566.964 569.832 567.063 579.13 566.964 588.448L566.014 587.496C588.427 587.496 610.839 587.496 633.331 587.734C655.823 587.972 678.295 588.111 700.708 588.448Z" fill="#8DBDF9"/>
<path d="M688.036 504.905H679.482V537.775H688.036V504.905Z" fill="#8DBDF9"/>
<path d="M860.645 58.0042H566.232V66.8857H860.645V58.0042Z" fill="#D5E8FF"/>
<path d="M860.645 183.537H566.232V192.419H860.645V183.537Z" fill="#D5E8FF"/>
<path d="M860.645 309.071H566.232V317.952H860.645V309.071Z" fill="#D5E8FF"/>
<path d="M621.373 183.518V83.5588H591.08V183.518H621.373Z" fill="#8DBDF9"/>
<path d="M621.373 155.188V144.204H591.08V155.188H621.373Z" fill="#CBE2FF"/>
<path d="M621.373 107.348V103.264H591.08V107.348H621.373Z" fill="#CBE2FF"/>
<path d="M817.582 83.5786V183.537H847.875V83.5786H817.582Z" fill="#8DBDF9"/>
<path d="M817.582 111.909V122.892H847.875V111.909H817.582Z" fill="#CBE2FF"/>
<path d="M847.895 177.571V173.487H817.602V177.571H847.895Z" fill="#CBE2FF"/>
<path d="M847.875 158.795V154.711H817.582V158.795H847.875Z" fill="#CBE2FF"/>
<path d="M763.035 183.518V83.5588H740.048V183.518H763.035Z" fill="#8DBDF9"/>
<path d="M763.055 155.188V144.204H740.068V155.188H763.055Z" fill="#CBE2FF"/>
<path d="M763.055 107.369V103.285H740.068V107.369H763.055Z" fill="#CBE2FF"/>
<path d="M642.558 183.517V66.9055H621.373V183.517H642.558Z" fill="#CBE2FF"/>
<path d="M638.222 122.714V77.8696H625.511V122.714H638.222Z" fill="#F4F9FF"/>
<path d="M847.895 73.8635V183.517H860.665V73.8635H847.895Z" fill="#A7CEFF"/>
<path d="M850.488 81.4568V123.625H858.15V81.4568H850.488Z" fill="#F4F9FF"/>
<path d="M763.055 76.8967V183.517H784.24V76.8967H763.055Z" fill="#CBE2FF"/>
<path d="M767.392 132.508V173.506H780.103V132.508H767.392Z" fill="#F4F9FF"/>
<path d="M678.493 183.537V94.958H642.537V183.537H678.493Z" fill="#A7CEFF"/>
<path d="M678.493 174.14V165.893H642.537V174.14H678.493Z" fill="#8DBDF9"/>
<path d="M678.493 160.461V157.269H642.537V160.461H678.493Z" fill="#8DBDF9"/>
<path d="M591.08 183.558V100.312H566.232V183.558H591.08Z" fill="#A7CEFF"/>
<path d="M591.08 174.695V166.943H566.232V174.695H591.08Z" fill="#8DBDF9"/>
<path d="M591.08 125.192V117.441H566.232V125.192H591.08Z" fill="#8DBDF9"/>
<path d="M591.061 133.538V130.524H566.213V133.538H591.061Z" fill="#8DBDF9"/>
<path d="M817.582 183.537V66.9055H784.22V183.537H817.582Z" fill="#A7CEFF"/>
<path d="M817.582 171.166V160.302H784.22V171.166H817.582Z" fill="#8DBDF9"/>
<path d="M817.582 101.817V90.9531H784.22V101.817H817.582Z" fill="#8DBDF9"/>
<path d="M817.582 113.495V109.272H784.22V113.495H817.582Z" fill="#8DBDF9"/>
<path d="M739.988 179.636L708.538 84.4121L696.751 88.3151L728.202 183.539L739.988 179.636Z" fill="#A7CEFF"/>
<path d="M736.676 169.541L733.742 160.656L721.955 164.559L724.89 173.444L736.676 169.541Z" fill="#8DBDF9"/>
<path d="M717.963 112.921L715.028 104.036L703.242 107.939L706.176 116.824L717.963 112.921Z" fill="#8DBDF9"/>
<path d="M678.513 71.3464V183.537H696.768V71.3464H678.513Z" fill="#8DBDF9"/>
<path d="M678.513 83.2417V93.6899H696.768V83.2417H678.513Z" fill="#F4F9FF"/>
<path d="M678.493 149.973V160.421H696.747V149.973H678.493Z" fill="#F4F9FF"/>
<path d="M678.513 138.733V142.797H696.768V138.733H678.513Z" fill="#F4F9FF"/>
<path d="M792.497 309.051V209.092H762.204V309.051H792.497Z" fill="#8DBDF9"/>
<path d="M792.496 280.72V269.737H762.204V280.72H792.496Z" fill="#CBE2FF"/>
<path d="M792.496 232.883V228.799H762.204V232.883H792.496Z" fill="#CBE2FF"/>
<path d="M578.982 209.092V309.051H609.275V209.092H578.982Z" fill="#8DBDF9"/>
<path d="M579.002 237.422V248.405H609.295V237.422H579.002Z" fill="#CBE2FF"/>
<path d="M609.295 303.104V299.02H579.003V303.104H609.295Z" fill="#CBE2FF"/>
<path d="M609.295 284.309V280.225H579.003V284.309H609.295Z" fill="#CBE2FF"/>
<path d="M686.809 309.031V209.072H663.822V309.031H686.809Z" fill="#8DBDF9"/>
<path d="M686.809 280.72V269.737H663.822V280.72H686.809Z" fill="#CBE2FF"/>
<path d="M686.809 232.883V228.799H663.822V232.883H686.809Z" fill="#CBE2FF"/>
<path d="M762.184 309.051V192.439H740.999V309.051H762.184Z" fill="#CBE2FF"/>
<path d="M758.046 248.227V203.382H745.335V248.227H758.046Z" fill="#F4F9FF"/>
<path d="M566.232 223.683V309.031H579.002V223.683H566.232Z" fill="#A7CEFF"/>
<path d="M568.707 229.571V262.401H576.369V229.571H568.707Z" fill="#F4F9FF"/>
<path d="M642.657 202.411V309.031H663.842V202.411H642.657Z" fill="#CBE2FF"/>
<path d="M646.795 258.021V299.02H659.506V258.021H646.795Z" fill="#F4F9FF"/>
<path d="M741.019 309.072V220.492H705.063V309.072H741.019Z" fill="#A7CEFF"/>
<path d="M741.019 299.654V291.407H705.063V299.654H741.019Z" fill="#8DBDF9"/>
<path d="M741.039 285.994V282.802H705.084V285.994H741.039Z" fill="#8DBDF9"/>
<path d="M860.645 309.051V202.411H835.797V309.051H860.645Z" fill="#A7CEFF"/>
<path d="M860.665 297.751V287.818H835.817V297.751H860.665Z" fill="#8DBDF9"/>
<path d="M860.645 234.33V224.397H835.797V234.33H860.645Z" fill="#8DBDF9"/>
<path d="M860.645 245.015V241.169H835.797V245.015H860.645Z" fill="#8DBDF9"/>
<path d="M642.657 309.071V192.439H609.296V309.071H642.657Z" fill="#A7CEFF"/>
<path d="M642.657 296.68V285.816H609.296V296.68H642.657Z" fill="#8DBDF9"/>
<path d="M642.657 227.331V216.467H609.296V227.331H642.657Z" fill="#8DBDF9"/>
<path d="M642.657 239.009V234.786H609.296V239.009H642.657Z" fill="#8DBDF9"/>
<path d="M804.3 309.068L835.75 213.844L823.964 209.941L792.514 305.165L804.3 309.068Z" fill="#CBE2FF"/>
<path d="M807.639 299L810.574 290.116L798.787 286.213L795.853 295.097L807.639 299Z" fill="#8DBDF9"/>
<path d="M826.332 242.36L829.267 233.475L817.48 229.572L814.546 238.457L826.332 242.36Z" fill="#8DBDF9"/>
<path d="M686.809 196.86V309.051H705.064V196.86H686.809Z" fill="#CBE2FF"/>
<path d="M686.809 208.775V219.223H705.064V208.775H686.809Z" fill="#F4F9FF"/>
<path d="M686.809 275.507V285.955H705.064V275.507H686.809Z" fill="#F4F9FF"/>
<path d="M686.809 264.245V268.31H705.064V264.245H686.809Z" fill="#F4F9FF"/>
<path d="M610.384 434.604V334.645H587.397V434.604H610.384Z" fill="#8DBDF9"/>
<path d="M610.384 406.293V395.31H587.397V406.293H610.384Z" fill="#CBE2FF"/>
<path d="M610.384 358.456V354.372H587.397V358.456H610.384Z" fill="#CBE2FF"/>
<path d="M587.397 434.624V318.012H566.212V434.624H587.397Z" fill="#CBE2FF"/>
<path d="M583.26 373.8V328.956H570.549V373.8H583.26Z" fill="#F4F9FF"/>
<path d="M610.384 346.045V434.624H646.339V346.045H610.384Z" fill="#A7CEFF"/>
<path d="M610.384 355.442V363.689H646.339V355.442H610.384Z" fill="#8DBDF9"/>
<path d="M610.384 369.121V372.313H646.339V369.121H610.384Z" fill="#8DBDF9"/>
<path d="M839.995 434.604V334.645H821.344V434.604H839.995Z" fill="#8DBDF9"/>
<path d="M839.995 406.274V395.291H821.344V406.274H839.995Z" fill="#CBE2FF"/>
<path d="M839.995 358.436V354.352H821.344V358.436H839.995Z" fill="#CBE2FF"/>
<path d="M646.358 325.942V434.624H670.474V325.942H646.358Z" fill="#8DBDF9"/>
<path d="M646.339 356.73V368.665H670.455V356.73H646.339Z" fill="#CBE2FF"/>
<path d="M670.454 428.121V423.68H646.339V428.121H670.454Z" fill="#CBE2FF"/>
<path d="M670.475 407.702V403.261H646.359V407.702H670.475Z" fill="#CBE2FF"/>
<path d="M727.337 434.584V321.838H704.351V434.584H727.337Z" fill="#8DBDF9"/>
<path d="M727.337 402.625V390.235H704.351V402.625H727.337Z" fill="#CBE2FF"/>
<path d="M727.337 348.682V344.082H704.351V348.682H727.337Z" fill="#CBE2FF"/>
<path d="M682.69 434.584V322.413H670.455V434.584H682.69Z" fill="#CBE2FF"/>
<path d="M680.295 376.119V332.98H672.949V376.119H680.295Z" fill="#F4F9FF"/>
<path d="M781.567 327.984V434.604H821.344V327.984H781.567Z" fill="#CBE2FF"/>
<path d="M789.349 383.574V424.573H813.207V383.574H789.349Z" fill="#F4F9FF"/>
<path d="M781.567 434.604V339.344H745.612V434.604H781.567Z" fill="#A7CEFF"/>
<path d="M781.567 424.513V415.631H745.612V424.513H781.567Z" fill="#8DBDF9"/>
<path d="M781.567 409.823V406.373H745.612V409.823H781.567Z" fill="#8DBDF9"/>
<path d="M860.665 434.605V327.965H840.015V434.605H860.665Z" fill="#A7CEFF"/>
<path d="M860.645 423.304V413.372H839.994V423.304H860.645Z" fill="#8DBDF9"/>
<path d="M860.665 359.883V349.95H840.015V359.883H860.665Z" fill="#8DBDF9"/>
<path d="M860.645 370.549V366.703H839.994V370.549H860.645Z" fill="#8DBDF9"/>
<path d="M704.371 434.604V333.615H682.691V434.604H704.371Z" fill="#A7CEFF"/>
<path d="M704.351 423.918V414.501H682.671V423.918H704.351Z" fill="#8DBDF9"/>
<path d="M704.351 363.868V354.451H682.671V363.868H704.351Z" fill="#8DBDF9"/>
<path d="M704.371 373.939V370.292H682.691V373.939H704.371Z" fill="#8DBDF9"/>
<path d="M727.337 327.27V434.604H745.592V327.27H727.337Z" fill="#CBE2FF"/>
<path d="M727.357 338.65V348.662H745.612V338.65H727.357Z" fill="#F4F9FF"/>
<path d="M727.337 402.487V412.498H745.592V402.487H727.337Z" fill="#F4F9FF"/>
<path d="M727.338 391.742V395.627H745.593V391.742H727.338Z" fill="#F4F9FF"/>
<path d="M243.483 367.545L258.568 370.747L243.483 375.16C242.541 375.433 241.691 375.958 241.024 376.68C240.358 377.401 239.901 378.29 239.702 379.252L235.934 397.35L231.763 379.6C231.531 378.611 231.026 377.707 230.306 376.991C229.586 376.275 228.679 375.775 227.69 375.549L212.605 372.111L228.107 367.74C229.072 367.469 229.944 366.935 230.624 366.198C231.304 365.461 231.766 364.548 231.958 363.563L235.42 346.162L239.326 363.452C239.555 364.461 240.068 365.383 240.805 366.109C241.542 366.835 242.472 367.333 243.483 367.545Z" fill="#E4F0FF"/>
<path d="M173.663 497.263L181.574 498.933L173.649 501.258C173.162 501.404 172.724 501.682 172.383 502.06C172.043 502.438 171.812 502.902 171.716 503.402L169.728 512.896L167.545 503.569C167.429 503.048 167.165 502.571 166.785 502.196C166.406 501.821 165.926 501.563 165.404 501.453L157.494 499.643L165.627 497.346C166.134 497.205 166.592 496.926 166.95 496.54C167.308 496.155 167.553 495.677 167.657 495.161L169.464 486.028L171.508 495.105C171.626 495.632 171.892 496.115 172.273 496.497C172.655 496.879 173.136 497.144 173.663 497.263Z" fill="#E4F0FF"/>
<path d="M285.206 352.343L289.794 353.317L285.206 354.709C284.918 354.788 284.657 354.946 284.453 355.165C284.25 355.384 284.111 355.655 284.052 355.948L282.898 361.517L281.633 356.101C281.559 355.8 281.403 355.526 281.182 355.31C280.961 355.093 280.684 354.943 280.381 354.876L275.793 353.832L280.52 352.44C280.812 352.355 281.074 352.192 281.28 351.969C281.486 351.746 281.627 351.471 281.688 351.173L282.745 345.869L283.927 351.131C284.007 351.432 284.17 351.704 284.395 351.918C284.621 352.132 284.902 352.279 285.206 352.343Z" fill="#E4F0FF"/>
<path d="M307.882 445.462L312.484 446.423L307.882 447.815C307.594 447.899 307.335 448.06 307.132 448.281C306.928 448.502 306.789 448.774 306.728 449.068L305.588 454.566L304.323 449.165C304.247 448.864 304.091 448.589 303.87 448.37C303.649 448.152 303.373 447.998 303.071 447.926L298.483 446.882L303.21 445.49C303.503 445.408 303.767 445.246 303.974 445.022C304.18 444.798 304.32 444.522 304.378 444.223L305.435 438.919L306.617 444.181C306.682 444.494 306.836 444.782 307.06 445.009C307.285 445.236 307.57 445.393 307.882 445.462Z" fill="#E4F0FF"/>
<path d="M195.879 476.13L199.661 476.924L195.879 478.037C195.647 478.109 195.437 478.241 195.271 478.419C195.105 478.597 194.989 478.816 194.934 479.054L193.961 483.592L192.918 479.137C192.857 478.891 192.731 478.667 192.552 478.488C192.373 478.309 192.149 478.182 191.903 478.121L188.149 477.3L192.028 476.2C192.27 476.13 192.487 475.996 192.659 475.812C192.83 475.628 192.949 475.402 193.002 475.156L193.864 470.798L194.837 475.128C194.902 475.375 195.034 475.599 195.218 475.775C195.402 475.952 195.631 476.075 195.879 476.13Z" fill="#E4F0FF"/>
<path d="M447.231 519.133L451.012 519.927L447.231 521.026C446.996 521.099 446.785 521.233 446.619 521.414C446.453 521.595 446.338 521.817 446.285 522.057L445.34 526.581L444.297 522.14C444.236 521.894 444.109 521.67 443.931 521.491C443.752 521.312 443.528 521.185 443.282 521.124L439.5 520.261L443.379 519.175C443.618 519.103 443.833 518.968 444.002 518.784C444.171 518.601 444.287 518.375 444.339 518.131L445.215 513.773L446.188 518.103C446.249 518.355 446.378 518.585 446.563 518.767C446.747 518.949 446.978 519.076 447.231 519.133Z" fill="#E0E0E0"/>
<path d="M346.685 256.593L350.466 257.4L346.685 258.5C346.45 258.573 346.239 258.706 346.073 258.887C345.907 259.068 345.792 259.29 345.739 259.53L344.794 264.054L343.751 259.614C343.69 259.368 343.564 259.143 343.385 258.964C343.206 258.785 342.982 258.658 342.736 258.597L338.955 257.734L342.834 256.634C343.075 256.565 343.293 256.431 343.464 256.247C343.635 256.063 343.754 255.836 343.807 255.59L344.669 251.233L345.642 255.562C345.703 255.814 345.833 256.044 346.017 256.226C346.201 256.408 346.432 256.535 346.685 256.593Z" fill="#E4F0FF"/>
<path d="M696.858 380.505L700.64 381.313L696.858 382.412C696.624 382.485 696.413 382.619 696.247 382.8C696.081 382.981 695.965 383.203 695.913 383.443L694.967 387.967L693.924 383.526C693.862 383.279 693.734 383.053 693.552 382.874C693.371 382.694 693.144 382.569 692.896 382.51L689.128 381.647L693.007 380.547C693.248 380.485 693.467 380.355 693.637 380.172C693.807 379.99 693.921 379.762 693.966 379.517L694.842 375.146L695.815 379.475C695.876 379.727 696.006 379.957 696.19 380.139C696.374 380.321 696.606 380.448 696.858 380.505Z" fill="#E0E0E0"/>
<path d="M634.211 271.697L637.993 272.49L634.211 273.604C633.979 273.675 633.769 273.807 633.603 273.985C633.437 274.164 633.321 274.383 633.266 274.62L632.321 279.158L631.278 274.704C631.216 274.456 631.087 274.23 630.906 274.051C630.724 273.872 630.497 273.746 630.249 273.687L626.481 272.838L630.36 271.738C630.599 271.666 630.814 271.532 630.983 271.348C631.152 271.164 631.268 270.938 631.32 270.694L632.196 266.337L633.169 270.666C633.23 270.918 633.359 271.148 633.544 271.33C633.728 271.512 633.959 271.639 634.211 271.697Z" fill="#E0E0E0"/>
<path d="M503.997 62.5997L507.765 63.4071L503.997 64.5069C503.763 64.5798 503.552 64.7135 503.386 64.8944C503.219 65.0753 503.104 65.2971 503.051 65.5371L502.106 70.0615L501.063 65.6206C501.001 65.373 500.873 65.1473 500.691 64.9681C500.51 64.7889 500.283 64.663 500.035 64.6043L496.253 63.7412L500.146 62.6414C500.384 62.5695 500.599 62.4346 500.768 62.2509C500.937 62.0672 501.053 61.8415 501.105 61.5973L501.967 57.24L502.954 61.5695C503.015 61.8214 503.145 62.0512 503.329 62.2332C503.513 62.4152 503.745 62.5421 503.997 62.5997Z" fill="#E4F0FF"/>
<path d="M346.782 461.346L354.428 462.974L346.782 465.202C346.305 465.346 345.875 465.615 345.537 465.983C345.199 466.35 344.967 466.802 344.863 467.29L342.945 476.45L340.831 467.457C340.712 466.957 340.456 466.5 340.093 466.136C339.73 465.772 339.273 465.516 338.774 465.397L331.113 463.657L338.982 461.429C339.469 461.291 339.909 461.022 340.255 460.651C340.6 460.281 340.838 459.823 340.943 459.327L342.694 450.501L344.669 459.271C344.79 459.781 345.053 460.246 345.427 460.613C345.801 460.98 346.27 461.234 346.782 461.346Z" fill="#E0E0E0"/>
<path d="M362.951 294.597L370.598 296.212L362.951 298.453C362.475 298.596 362.047 298.864 361.709 299.228C361.372 299.593 361.138 300.042 361.032 300.528L359.128 309.702L357.015 300.695C356.892 300.195 356.633 299.74 356.267 299.378C355.902 299.017 355.443 298.764 354.943 298.648L347.296 296.908L355.165 294.681C355.652 294.539 356.09 294.267 356.433 293.894C356.776 293.521 357.011 293.061 357.112 292.565L358.864 283.739L360.838 292.509C360.957 293.021 361.219 293.49 361.593 293.859C361.967 294.229 362.438 294.485 362.951 294.597Z" fill="#E4F0FF"/>
<path d="M469.684 16.2841L477.331 17.899L469.684 20.1403C469.204 20.282 468.771 20.5508 468.431 20.9184C468.091 21.2859 467.856 21.7385 467.752 22.2285L465.847 31.3887L463.678 22.3816C463.555 21.8822 463.297 21.4266 462.931 21.0654C462.565 20.7042 462.107 20.4514 461.607 20.3352L453.96 18.595L461.829 16.3676C462.313 16.2269 462.75 15.957 463.093 15.5867C463.436 15.2164 463.672 14.7597 463.775 14.2655L465.527 5.43945L467.515 14.1959C467.639 14.7156 467.909 15.1889 468.293 15.5591C468.678 15.9294 469.161 16.181 469.684 16.2841Z" fill="#E4F0FF"/>
<path d="M688.586 205.056L701.724 207.84L688.586 211.682C687.762 211.922 687.019 212.381 686.436 213.012C685.853 213.642 685.452 214.419 685.277 215.26L681.954 231.005L678.367 215.58C678.161 214.719 677.719 213.933 677.09 213.311C676.461 212.688 675.67 212.254 674.808 212.058L661.67 209.065L675.184 205.251C676.022 205.012 676.778 204.546 677.369 203.905C677.96 203.264 678.363 202.473 678.534 201.617L681.551 186.443L684.957 201.506C685.163 202.382 685.613 203.181 686.256 203.81C686.898 204.438 687.707 204.871 688.586 205.056Z" fill="#E4F0FF"/>
<path d="M291.087 -15.5684H168.088V112.827H291.087V-15.5684Z" fill="#8DC0FF"/>
<path d="M282.745 -15.5684H159.746V112.827H282.745V-15.5684Z" fill="#E6F1FF"/>
<path d="M282.787 112.855H159.718V-15.6099H282.787V112.855ZM159.788 112.786H282.717V-15.5124H159.788V112.786Z" fill="#E0E0E0"/>
<path d="M266.229 1.69458H176.291V95.566H266.229V1.69458Z" fill="#FAFAFA"/>
<path d="M176.29 96.1919C175.646 97.1299 174.9 97.9929 174.066 98.7669C172.676 100.284 170.618 102.345 168.352 104.572C166.086 106.8 164.014 108.749 162.471 110.21C161.698 111.035 160.824 111.76 159.871 112.368C160.515 111.43 161.256 110.562 162.082 109.779C163.472 108.261 165.543 106.215 167.81 103.974C170.076 101.732 172.161 99.7969 173.705 98.3359C174.475 97.5169 175.343 96.7969 176.29 96.1919Z" fill="#B8D9FF"/>
<path d="M266.256 95.9551C267.204 96.5921 268.072 97.3401 268.842 98.1831C270.358 99.5751 272.415 101.635 274.64 103.904C276.864 106.174 278.811 108.248 280.201 109.779C281.024 110.559 281.752 111.432 282.37 112.382C281.424 111.759 280.56 111.02 279.798 110.183C278.282 108.791 276.225 106.716 274 104.447C271.776 102.178 269.829 100.076 268.356 98.5451C267.558 97.7661 266.853 96.8971 266.256 95.9551Z" fill="#B8D9FF"/>
<path d="M265.978 1.9448C266.611 0.998198 267.353 0.129198 268.189 -0.644602C269.579 -2.162 271.65 -4.2084 273.917 -6.44973C276.183 -8.69105 278.254 -10.6261 279.784 -12.0182C280.555 -12.8496 281.428 -13.5794 282.383 -14.1899C281.75 -13.26 281.003 -12.4134 280.159 -11.6702C278.769 -10.1528 276.697 -8.09244 274.431 -5.8511C272.165 -3.6098 270.079 -1.6747 268.55 -0.213001C267.78 0.604699 266.917 1.3289 265.978 1.9448Z" fill="#B8D9FF"/>
<path d="M176.04 2.168C175.095 1.5338 174.227 0.790998 173.454 -0.0454025C171.939 -1.4376 169.895 -3.5118 167.67 -5.781C165.446 -8.05016 163.5 -10.1244 162.109 -11.6558C161.293 -12.4412 160.566 -13.3143 159.94 -14.259C160.888 -13.6332 161.752 -12.8895 162.512 -12.0456C164.028 -10.6534 166.086 -8.57917 168.324 -6.31C170.562 -4.0408 172.495 -1.9527 173.885 -0.421303C174.703 0.353997 175.426 1.2231 176.04 2.168Z" fill="#B8D9FF"/>
<path d="M265.978 95.565C265.968 95.412 265.968 95.259 265.978 95.106C265.978 94.786 265.978 94.354 265.978 93.797C265.978 92.614 265.978 90.929 265.978 88.73C265.978 84.275 265.978 77.8156 265.881 69.6021C265.881 53.1611 265.784 29.7316 265.714 1.69428L266.062 2.04228H176.374L176.763 1.65248C176.763 36.1076 176.763 68.3353 176.763 95.523L176.429 95.175L241.37 95.356L259.611 95.44H264.435H265.672H266.117H265.714H264.504H259.75L241.579 95.537L176.29 95.858H175.887V95.523C175.887 68.3353 175.887 36.1076 175.887 1.65248V1.24878H176.29H265.978H266.326V1.59678C266.242 29.7316 266.187 53.2307 266.145 69.7274C266.145 77.8992 266.145 84.345 266.048 88.772C266.048 90.943 266.048 92.614 266.048 93.769C266.048 94.312 266.048 94.744 266.048 95.05C266.048 95.356 265.978 95.565 265.978 95.565Z" fill="#B8D9FF"/>
<path d="M236.253 33.6018H206.251V63.6439H236.253V33.6018Z" fill="#4B3CFB"/>
<path d="M290.976 144.791H167.977V273.187H290.976V144.791Z" fill="#8DC0FF"/>
<path d="M282.634 144.791H159.635V273.187H282.634V144.791Z" fill="#E6F1FF"/>
<path d="M282.69 273.228H159.607V144.763H282.69V273.228ZM159.676 273.145H282.606V144.833H159.676V273.145Z" fill="#E0E0E0"/>
<path d="M266.117 162.053H176.179V255.924H266.117V162.053Z" fill="#FAFAFA"/>
<path d="M176.179 256.551C175.538 257.495 174.791 258.364 173.955 259.14C172.564 260.657 170.507 262.704 168.241 264.945C165.974 267.186 163.903 269.121 162.36 270.514C161.579 271.335 160.706 272.063 159.76 272.685C160.404 271.764 161.15 270.918 161.984 270.166C163.375 268.648 165.446 266.588 167.712 264.346C169.978 262.105 172.064 260.17 173.607 258.708C174.377 257.891 175.24 257.166 176.179 256.551Z" fill="#B8D9FF"/>
<path d="M266.104 256.328C267.053 256.957 267.921 257.7 268.689 258.541C270.205 259.933 272.263 262.008 274.487 264.263C276.711 266.518 278.658 268.62 280.048 270.151C280.878 270.924 281.607 271.798 282.217 272.755C281.277 272.119 280.414 271.376 279.645 270.541C278.13 269.149 276.072 267.075 273.847 264.806C271.623 262.537 269.677 260.448 268.203 258.917C267.409 258.135 266.705 257.267 266.104 256.328Z" fill="#B8D9FF"/>
<path d="M265.867 162.304C266.503 161.364 267.245 160.5 268.078 159.729C269.468 158.211 271.54 156.151 273.806 153.923C276.072 151.696 278.143 149.747 279.673 148.285C280.45 147.464 281.323 146.74 282.273 146.127C281.641 147.067 280.898 147.927 280.062 148.689C278.672 150.206 276.6 152.267 274.334 154.508C272.068 156.749 269.982 158.684 268.453 160.146C267.684 160.97 266.815 161.695 265.867 162.304Z" fill="#B8D9FF"/>
<path d="M175.887 162.541C174.944 161.898 174.077 161.151 173.301 160.313C171.786 158.921 169.742 156.861 167.518 154.592C165.293 152.323 163.375 150.248 161.984 148.759C161.164 147.977 160.437 147.103 159.815 146.156C160.754 146.792 161.617 147.535 162.387 148.369C163.903 149.761 165.961 151.835 168.199 154.105C170.437 156.374 172.37 158.462 173.76 160.007C174.569 160.762 175.284 161.613 175.887 162.541Z" fill="#B8D9FF"/>
<path d="M265.867 255.952C265.855 255.803 265.855 255.654 265.867 255.506C265.867 255.186 265.867 254.754 265.867 254.184C265.867 253.014 265.867 251.316 265.867 249.116C265.867 244.675 265.867 238.202 265.77 229.989C265.77 213.548 265.672 190.132 265.603 162.081L265.95 162.429H176.263L176.652 162.025C176.652 196.48 176.652 228.722 176.652 255.896L176.318 255.562L241.259 255.729L259.499 255.826H264.324H266.006C265.872 255.839 265.737 255.839 265.603 255.826H264.393H259.638L241.467 255.91L176.318 256.091H175.887V255.952C175.887 228.777 175.887 196.536 175.887 162.081V161.691H176.29H265.978H266.256V162.039C266.173 190.174 266.117 213.673 266.075 230.17C266.075 238.355 266.006 244.801 265.978 249.228C265.978 251.399 265.978 253.07 265.978 254.225C265.978 254.768 265.978 255.186 265.978 255.492C265.95 255.647 265.913 255.801 265.867 255.952Z" fill="#B8D9FF"/>
<path d="M236.157 193.974H206.141V224.016H236.157V193.974Z" fill="#4B3CFB"/>
<path d="M367.665 417.201L347.533 452.867L375.659 481.211L405.119 449.206L367.665 417.201Z" fill="#FFBE9D"/>
<path d="M193.961 529.253L232.069 528.349C232.069 528.349 252.02 516.237 253.591 515.332C255.162 514.427 264.24 512.548 264.24 512.548L324.649 531.495V537.063H183.2V532.845L189.707 532.163L193.961 529.253Z" fill="#87BDFF"/>
<path d="M349.743 447.814C348.603 447.633 316.543 497.666 316.543 497.666L278.24 504.696L235.781 528.362C235.781 528.362 234.822 533.165 239.618 533.485C244.415 533.805 270.205 522.348 270.205 522.348C270.205 522.348 261.376 526.65 263.058 532.19C265.033 538.692 281.688 533.582 281.688 533.582L317.266 531.272C318.9 531.165 320.493 530.716 321.942 529.953C323.391 529.191 324.663 528.132 325.677 526.845L330.21 521.109L380.01 481.475C380.01 481.475 375.603 451.642 349.743 447.814Z" fill="#133578"/>
<path d="M292.95 515.221C292.714 515.563 292.428 515.868 292.102 516.126C291.265 516.877 290.378 517.57 289.447 518.2C288.06 519.147 286.573 519.937 285.012 520.553C283.082 521.278 281.051 521.696 278.992 521.792C276.983 521.837 274.977 521.995 272.986 522.265C271.409 522.648 269.893 523.248 268.481 524.047C266.02 525.439 264.755 526.623 264.672 526.525C264.588 526.428 264.908 526.149 265.506 525.606C266.35 524.86 267.257 524.19 268.217 523.602C269.652 522.71 271.213 522.039 272.847 521.611C274.862 521.295 276.897 521.114 278.936 521.068C282.575 520.878 286.102 519.74 289.169 517.769C291.546 516.279 292.867 515.124 292.95 515.221Z" fill="white"/>
<path d="M321.632 509.318C321.437 509.318 320.965 506.534 319.394 503.36C318.339 501.498 317.387 499.578 316.543 497.611C318.006 499.217 319.19 501.057 320.047 503.054C321.139 504.957 321.688 507.124 321.632 509.318Z" fill="white"/>
<path d="M331.28 512.325C330.431 511.935 329.651 511.408 328.972 510.765C325.511 507.871 322.761 504.217 320.936 500.088C320.501 499.256 320.205 498.357 320.061 497.429C321.518 500.196 323.138 502.873 324.913 505.447C326.893 507.868 329.02 510.165 331.28 512.325Z" fill="white"/>
<path d="M343.014 502.01C342.888 501.604 342.823 501.182 342.82 500.757C342.82 499.949 342.681 498.78 342.667 497.332C342.615 493.554 342.871 489.778 343.431 486.042C343.999 482.3 344.859 478.609 346.003 475.002C346.448 473.61 346.851 472.524 347.171 471.773C347.292 471.371 347.475 470.99 347.713 470.645C347.392 472.169 346.988 473.675 346.504 475.155C344.482 482.381 343.366 489.831 343.181 497.332C343.208 498.893 343.153 500.454 343.014 502.01Z" fill="white"/>
<g opacity="0.3">
<path opacity="0.3" d="M346.393 475.253C343.667 482.904 342.564 491.04 343.153 499.142C345.787 491.469 346.888 483.352 346.393 475.253Z" fill="#133578"/>
</g>
<path d="M508.334 555.174L512.338 523.239L664.061 438.751C664.061 438.751 686.305 474.765 694.814 555.202L588.206 554.701L508.334 555.174Z" fill="#133578"/>
<path d="M427.989 242.879L408.636 264.429L405.438 307.335L442.671 383.776L485.366 473.763C488.884 481.489 492.429 499.295 489.927 509.415C489.927 509.415 482.975 533.917 518.261 535.546C537.502 536.437 559.636 531.369 575.777 526.539L576.194 526.413C603.797 518.238 627.098 499.549 641.093 474.362L665.854 440.129C660.376 418.788 651.951 424.607 648.628 416.547C632.612 377.832 619.432 349.864 619.432 349.864L566.379 227.468C558.44 209.496 548.43 202.911 536.766 200.03C528.117 197.951 519.096 197.979 510.461 200.113L484.393 206.392L427.989 242.879Z" fill="#0075FF"/>
<path d="M407.371 464.534C418.243 452.005 435.872 365.623 435.872 365.623L408.636 264.43C408.636 264.43 396.04 278.783 392.133 292.509L369.305 413.443C369.305 413.443 360.963 415.183 361.047 428.005C361.06 436.636 407.371 464.534 407.371 464.534Z" fill="#0075FF"/>
<path d="M456.101 411.632C455.904 411.36 455.732 411.071 455.586 410.769L454.196 408.235L449.344 398.839C445.284 390.806 439.723 379.85 433.592 367.739L418.076 336.541L413.433 327.047C412.918 325.975 412.515 325.112 412.209 324.457C412.045 324.162 411.915 323.849 411.82 323.525C412.018 323.795 412.19 324.084 412.334 324.388L413.725 326.921L418.577 336.318C422.636 344.337 428.197 355.307 434.329 367.432L449.9 398.63L454.544 408.124C455.044 409.196 455.447 410.059 455.767 410.713C455.913 411.006 456.025 411.314 456.101 411.632Z" fill="#133578"/>
<path d="M648.1 424.956C648.028 425.354 647.921 425.745 647.78 426.125L646.724 429.438L645.945 431.833C645.639 432.71 645.264 433.629 644.874 434.617C644.082 436.622 643.276 438.933 642.094 441.369C641.538 442.608 640.954 443.902 640.356 445.253C639.758 446.603 638.966 447.94 638.284 449.36C636.894 452.227 635.142 455.137 633.349 458.241C625.327 471.566 615.307 483.577 603.638 493.852C600.858 496.163 598.341 498.418 595.783 500.297C594.504 501.244 593.322 502.218 592.113 503.082C590.903 503.945 589.722 504.71 588.609 505.49C586.413 507.063 584.286 508.274 582.464 509.416C581.547 509.973 580.699 510.502 579.906 510.961L577.682 512.103L574.609 513.731C574.254 513.929 573.887 514.106 573.511 514.26C573.833 514.012 574.178 513.793 574.54 513.606L577.543 511.852L579.711 510.613C580.504 510.14 581.338 509.583 582.242 509.012C584.035 507.843 586.135 506.604 588.303 505.003L591.765 502.567C592.961 501.717 594.143 500.743 595.394 499.782C597.938 497.889 600.469 495.606 603.18 493.323C614.749 483.044 624.72 471.093 632.765 457.865C634.558 454.789 636.324 451.893 637.728 449.053C638.451 447.661 639.202 446.269 639.828 444.974L641.621 441.132C642.803 438.71 643.651 436.427 644.471 434.45C644.874 433.448 645.264 432.529 645.597 431.666L646.432 429.299L647.613 426.028C647.75 425.659 647.913 425.301 648.1 424.956Z" fill="#133578"/>
<g opacity="0.3">
<path opacity="0.3" d="M550.07 420.222C561.415 420.013 577.431 418.12 588.331 414.946C599.231 411.772 609.658 406.301 617.458 398.087C625.257 389.874 630.304 378.598 629.97 367.307C623.561 381.243 611.049 393.939 596.826 401.15C592.085 403.558 583.535 407.763 582.561 406.51L550.07 420.222Z" fill="#133578"/>
</g>
<path d="M500.715 402.417C502.689 400.231 551.196 363.911 551.196 363.911L590.973 406.078L524.1 434.366L500.715 402.417Z" fill="#FFBE9D"/>
<path d="M581.352 411.104C590.305 407.485 598.953 403.656 604.82 399.132C632.626 377.651 634.461 358.273 630.846 344.101C626.884 328.509 563.64 218.81 556.66 211.752C549.681 204.694 527.631 193.39 505.595 218.573C492.804 233.204 518.233 274.439 518.233 274.439L563.417 353.623C550.696 351.465 544.885 364.538 544.885 364.538L581.352 411.104Z" fill="#0075FF"/>
<path d="M545.844 367.92C545.796 367.766 545.764 367.608 545.747 367.447C545.423 365.171 545.692 362.851 546.525 360.709C547.742 358.093 549.925 356.052 552.615 355.015C556.05 353.654 559.746 353.079 563.431 353.331L563.153 353.776C558.537 345.744 553.032 336.11 547.095 325.767L526.561 289.572L520.402 278.56C519.721 277.293 519.178 276.291 518.761 275.539C518.565 275.192 518.388 274.834 518.233 274.467C518.482 274.78 518.701 275.115 518.886 275.469C519.331 276.193 519.915 277.182 520.652 278.421L527.006 289.321C532.344 298.606 539.643 311.358 547.735 325.433L563.668 353.512L563.946 353.985H563.39C559.793 353.719 556.181 354.247 552.809 355.53C550.205 356.487 548.069 358.412 546.845 360.904C546.131 362.535 545.775 364.302 545.802 366.083C545.802 367.322 545.886 367.92 545.844 367.92Z" fill="#133578"/>
<path d="M628.872 338.769C629.04 339.057 629.179 339.36 629.289 339.674C629.525 340.273 629.956 341.15 630.332 342.333C631.466 345.663 632.131 349.135 632.306 352.649C632.428 355.08 632.321 357.518 631.986 359.929C631.567 362.69 630.897 365.407 629.984 368.045C628.935 370.934 627.642 373.729 626.119 376.398C624.471 379.252 622.612 381.979 620.558 384.556C613.138 393.489 603.981 400.817 593.642 406.092C590.539 407.713 587.324 409.108 584.021 410.269C582.853 410.714 581.922 410.965 581.31 411.16C580.994 411.274 580.669 411.358 580.337 411.41C580.632 411.256 580.939 411.125 581.255 411.02C581.866 410.784 582.784 410.491 583.924 410.004C587.167 408.733 590.333 407.274 593.406 405.633C603.59 400.256 612.625 392.935 620.002 384.083C622.049 381.539 623.907 378.85 625.563 376.036C627.068 373.393 628.356 370.632 629.414 367.781C630.329 365.184 631.009 362.509 631.444 359.79C631.804 357.423 631.939 355.027 631.847 352.635C631.721 349.154 631.142 345.705 630.123 342.375C629.79 341.191 629.4 340.3 629.22 339.674C629.067 339.388 628.951 339.084 628.872 338.769Z" fill="#133578"/>
<g opacity="0.3">
<path opacity="0.3" d="M563.07 353.623C568.099 354.191 572.954 355.808 577.321 358.369C581.689 360.929 585.473 364.377 588.429 368.49C589.171 369.42 589.693 370.505 589.959 371.664C590.075 372.248 590.023 372.852 589.808 373.407C589.594 373.961 589.227 374.443 588.749 374.797C588.258 375.048 587.71 375.167 587.16 375.143C586.609 375.118 586.074 374.951 585.607 374.658C584.689 374.052 583.872 373.305 583.188 372.444C576.806 365.205 571.384 359.066 563.418 353.623" fill="#133578"/>
</g>
<path d="M587.692 380.992C587.581 380.992 586.649 379.182 584.911 376.287C582.72 372.513 580.193 368.944 577.362 365.623C574.491 362.344 571.275 359.384 567.769 356.797C565.086 354.806 563.292 353.734 563.362 353.623C563.824 353.788 564.267 354.003 564.683 354.263C565.517 354.709 566.671 355.433 568.075 356.379C571.707 358.877 575.009 361.824 577.904 365.15C580.782 368.492 583.282 372.143 585.356 376.036C586.149 377.526 586.747 378.751 587.108 379.614C587.36 380.047 587.556 380.51 587.692 380.992Z" fill="#133578"/>
<path d="M537.363 200.072C533.635 200.212 529.941 200.848 526.38 201.965C522.539 203.231 518.938 205.137 515.73 207.603C511.766 210.572 508.519 214.395 506.23 218.791C503.942 223.186 502.67 228.041 502.509 232.995C502.31 237.036 502.804 241.08 503.969 244.954C505.085 248.522 506.679 251.922 508.709 255.061C508.709 255.061 508.515 254.866 508.209 254.462C507.75 253.868 507.323 253.25 506.93 252.611C505.457 250.271 504.298 247.749 503.482 245.107C502.235 241.187 501.68 237.079 501.841 232.968C501.973 227.906 503.256 222.942 505.593 218.452C507.93 213.963 511.259 210.067 515.327 207.06C518.613 204.589 522.301 202.705 526.227 201.492C528.862 200.678 531.591 200.21 534.346 200.1C535.32 200.016 536.07 200.1 536.585 200.1C536.842 200.06 537.104 200.051 537.363 200.072Z" fill="#133578"/>
<path d="M421.58 438.32L419.856 434.923L415.963 433.155C415.963 433.155 399.279 435.842 395.22 442.788C391.16 449.735 375.088 474.529 375.756 479.471C376.423 484.413 380.649 487.058 383.486 486C386.322 484.942 391.563 478.051 391.563 478.051L393.802 477.758L420.217 483.842L423.359 478.413L398.751 469.336L412.139 468.014L423.86 455.484L421.58 438.32Z" fill="#05C168"/>
<path d="M446.633 480.236C445.852 482.528 445.644 484.976 446.027 487.366C446.41 489.757 447.372 492.017 448.829 493.949C453.167 499.67 459.632 508.65 465.721 516.64C470.476 522.863 502.481 539.346 519.776 547.963C523.018 549.586 526.742 549.96 530.241 549.012C533.74 548.065 536.77 545.864 538.753 542.826C544.906 533.45 549.796 523.302 553.296 512.645C554.408 509.217 554.233 505.501 552.805 502.192C551.377 498.884 548.793 496.21 545.538 494.673L471.088 459.508C469.206 458.618 467.159 458.136 465.078 458.094C462.998 458.051 460.932 458.449 459.016 459.261C457.1 460.073 455.377 461.281 453.959 462.806C452.541 464.332 451.461 466.139 450.79 468.111L446.633 480.236Z" fill="white"/>
<path d="M446.633 480.237C446.633 480.237 446.633 479.972 446.841 479.485L447.55 477.299C448.19 475.364 449.135 472.552 450.331 468.947C450.925 466.884 451.928 464.962 453.278 463.295C454.909 461.311 457.027 459.785 459.423 458.868C462.179 457.803 465.187 457.576 468.071 458.213C469.622 458.617 471.123 459.191 472.548 459.926L477.066 462.042L520.457 482.464L546.08 494.562C548.37 495.729 550.325 497.461 551.76 499.595C553.196 501.728 554.064 504.193 554.283 506.757C554.473 509.365 554.054 511.982 553.06 514.4C552.212 516.85 551.308 519.286 550.279 521.694C548.297 526.464 546.037 531.112 543.508 535.616C542.257 537.834 540.95 539.996 539.588 542.103C538.923 543.183 538.159 544.198 537.308 545.138C535.152 547.396 532.354 548.934 529.293 549.542C526.233 550.15 523.06 549.798 520.207 548.534C515.925 546.474 511.865 544.358 507.82 542.298C499.784 538.121 492.207 534.126 485.227 530.158C481.724 528.182 478.373 526.219 475.231 524.214C472.139 522.379 469.225 520.259 466.528 517.88C465.4 516.642 464.355 515.33 463.4 513.954C462.44 512.645 461.495 511.365 460.619 510.14C458.798 507.662 457.06 505.323 455.447 503.179C453.834 501.035 452.347 499.003 450.957 497.095C449.632 495.43 448.429 493.671 447.356 491.833C446.012 489.179 445.503 486.179 445.896 483.23C446.002 482.206 446.254 481.202 446.647 480.251C446.647 480.251 446.647 480.501 446.452 481.002C446.26 481.739 446.121 482.488 446.035 483.244C445.709 486.159 446.255 489.105 447.606 491.708C448.69 493.519 449.903 495.25 451.235 496.887L455.781 502.928L460.981 509.889L463.831 513.69C464.773 515.05 465.809 516.343 466.931 517.56C469.611 519.897 472.501 521.98 475.565 523.782C478.707 525.759 482.057 527.708 485.561 529.671C492.512 533.611 500.131 537.62 508.153 541.741C512.171 543.773 516.3 545.917 520.527 547.95C522.688 548.905 525.051 549.315 527.407 549.142C529.763 548.97 532.041 548.221 534.04 546.961C535.058 546.318 535.991 545.551 536.821 544.678C537.641 543.773 538.376 542.794 539.018 541.755C540.408 539.653 541.659 537.578 542.897 535.295C545.416 530.82 547.667 526.2 549.64 521.458C550.641 519.063 551.53 516.641 552.42 514.205C553.395 511.884 553.805 509.365 553.616 506.854C553.411 504.414 552.586 502.067 551.221 500.035C549.856 498.003 547.996 496.354 545.816 495.244L520.235 483.105L476.899 462.543L472.395 460.399C471.005 459.677 469.541 459.108 468.029 458.701C465.25 458.082 462.351 458.29 459.688 459.299C457.347 460.173 455.272 461.641 453.668 463.559C452.325 465.2 451.323 467.094 450.72 469.128C449.469 472.719 448.482 475.504 447.815 477.48C447.481 478.399 447.231 479.123 447.036 479.638C446.841 480.153 446.633 480.237 446.633 480.237Z" fill="#133578"/>
<path d="M417.311 450.737C417.311 450.737 419.021 438.459 423.206 437.22C427.391 435.981 453.445 428.157 453.445 428.157L524.851 379.098L552.726 432.653L487.382 459.104C487.382 459.104 484.824 462.459 481.974 461.164C481.974 461.164 477.65 466.426 475.356 466.733C473.062 467.039 473.882 468.278 473.882 468.278C473.882 468.278 454.738 500.297 450.136 500.923C445.534 501.55 439.737 500.687 439.904 496.956C439.904 496.956 431.284 500.088 428.503 496.775C428.503 496.775 421.816 501.87 417.464 496.413C416.326 494.44 415.291 492.41 414.364 490.329C414.364 490.329 408.58 497.499 403.353 495.007C398.376 492.626 399.488 484.914 402.213 480.194C404.938 475.475 417.311 450.737 417.311 450.737Z" fill="#133578"/>
<path d="M390.451 479.722C390.34 479.722 389.937 479.012 389.061 477.94C386.809 475.167 383.579 473.367 380.038 472.914C379.287 472.897 378.539 472.823 377.8 472.691C378.527 472.42 379.309 472.324 380.08 472.413C381.945 472.495 383.765 473.011 385.396 473.92C387.027 474.828 388.425 476.104 389.478 477.647C389.962 478.252 390.295 478.963 390.451 479.722Z" fill="#133578"/>
<path d="M412.834 459.118C411.742 460.138 410.57 461.069 409.331 461.902C407.134 463.559 404.076 465.8 400.892 468.515C398.161 470.821 395.635 473.359 393.343 476.102C391.605 478.218 390.687 479.638 390.562 479.582C390.684 479.194 390.867 478.828 391.104 478.497C391.66 477.555 392.273 476.649 392.939 475.782C395.136 472.914 397.64 470.295 400.405 467.972C403.156 465.651 406.034 463.485 409.025 461.485C410.225 460.588 411.499 459.796 412.834 459.118Z" fill="#133578"/>
<path d="M474.55 515.388L495.126 476.172L532.261 493.156L508.042 535.964L474.55 515.388Z" fill="#0075FF"/>
<path d="M449.984 481.267C449.75 482.181 449.39 483.057 448.913 483.871C447.891 485.903 446.744 487.869 445.479 489.759C444.205 491.647 442.812 493.451 441.308 495.161C440.74 495.918 440.06 496.585 439.292 497.138C439.125 496.998 441.92 493.741 444.853 489.356C447.787 484.971 449.775 481.17 449.984 481.267Z" fill="white"/>
<path d="M436.345 481.809C435.725 484.637 434.67 487.352 433.217 489.856C431.948 492.456 430.288 494.846 428.295 496.941C428.114 496.802 430.353 493.67 432.577 489.508C434.802 485.345 436.136 481.739 436.345 481.809Z" fill="white"/>
<path d="M421.107 479.123C420.42 481.225 419.486 483.239 418.327 485.123C417.369 487.134 416 488.922 414.309 490.371C414.17 490.232 415.977 487.949 417.701 484.802C419.425 481.656 420.899 479.011 421.107 479.123Z" fill="white"/>
<path d="M472.687 458.784C472.687 458.979 465.082 457.114 455.809 454.608C446.536 452.102 439.125 449.902 439.125 449.721C439.125 449.54 446.73 451.392 456.004 453.898C465.277 456.404 472.743 458.589 472.687 458.784Z" fill="white"/>
<path d="M469.517 452.241C468.595 452.167 467.69 451.951 466.834 451.6C464.716 450.93 462.645 450.121 460.633 449.178C458.617 448.245 456.662 447.184 454.78 446.004C453.965 445.57 453.22 445.016 452.569 444.361C452.681 444.18 456.268 446.366 460.911 448.537C465.555 450.709 469.573 451.962 469.517 452.241Z" fill="white"/>
<g opacity="0.3">
<path opacity="0.3" d="M481.96 457.113C481.641 456.5 481.432 455.874 481.126 455.248C477.843 448.57 473.174 442.67 467.432 437.943C466.903 437.512 466.194 437.066 465.597 437.401C465.375 437.547 465.209 437.764 465.126 438.017C465.043 438.269 465.047 438.543 465.138 438.793C465.308 439.286 465.588 439.734 465.958 440.101C471.144 446.199 475.315 452.032 480.501 458.129C480.89 458.644 482.308 457.809 481.96 457.113Z" fill="#133578"/>
</g>
<path d="M358.947 509.541C359.622 508.434 360.394 507.39 361.255 506.422C362.743 504.557 364.842 502.009 367.206 499.225C369.569 496.441 371.724 493.949 373.309 492.167C374.115 491.153 375.018 490.22 376.006 489.383C375.338 490.493 374.565 491.537 373.698 492.501C372.211 494.366 370.111 496.914 367.762 499.698C365.412 502.482 363.243 504.974 361.644 506.742C360.831 507.754 359.928 508.691 358.947 509.541Z" fill="#133578"/>
<path d="M364.619 529.365C364.439 529.365 367.497 521.012 371.446 510.794C375.394 500.576 378.745 492.404 378.926 492.487C379.106 492.571 376.062 500.84 372.113 511.058C368.165 521.277 364.814 529.448 364.619 529.365Z" fill="#133578"/>
<path d="M382.415 518.395C382.09 514.031 382.006 509.653 382.165 505.281C382.09 500.904 382.253 496.526 382.652 492.167C382.978 496.53 383.061 500.908 382.902 505.281C382.977 509.658 382.815 514.035 382.415 518.395Z" fill="#133578"/>
<path d="M337.759 157.737C337.759 150.651 340.011 148.257 338.357 146.934C332.434 142.187 327.151 129.714 326.664 124.173C325.538 111.143 336.536 99.685 336.536 99.685C338.579 92.725 341.402 83.495 349.66 77.0913C358.613 70.1306 372.641 61.8614 383.861 63.3092C395.081 64.7571 403.186 65.4531 410.36 74.2096L394.691 213.311C385.988 213.046 378.244 207.547 372.336 201.13C366.427 194.712 361.755 187.208 355.652 181.041C351.064 176.433 350.091 178.327 342.194 167.872C337.272 161.37 337.689 164.238 337.759 157.737Z" fill="#211F54"/>
<path d="M448.844 115.263C439.028 87.087 414.462 69.3231 386.614 79.931L384.098 81.0726C371.882 86.564 362.179 96.46 356.921 108.791C351.663 121.122 351.235 134.983 355.722 147.616C364.356 171.978 374.213 198.763 380.024 211.306C392.05 237.269 419.954 229.612 419.954 229.612L431.799 252.165C444.108 254.608 456.884 252.526 467.783 246.299C478.682 240.073 486.974 230.12 491.137 218.266L448.844 115.263Z" fill="#FFBE9D"/>
<path d="M419.378 164.282C419.842 165.221 420.653 165.941 421.64 166.29C422.626 166.64 423.709 166.59 424.659 166.153C425.133 165.958 425.563 165.67 425.924 165.306C426.285 164.942 426.57 164.509 426.762 164.034C426.954 163.558 427.049 163.049 427.041 162.536C427.033 162.023 426.923 161.516 426.717 161.046C426.255 160.106 425.444 159.384 424.457 159.034C423.47 158.685 422.386 158.735 421.436 159.176C420.962 159.371 420.532 159.659 420.171 160.023C419.81 160.387 419.525 160.819 419.333 161.295C419.141 161.771 419.047 162.28 419.054 162.793C419.062 163.306 419.172 163.812 419.378 164.282Z" fill="#211F54"/>
<path d="M382.121 180.892C382.586 181.832 383.399 182.554 384.388 182.902C385.376 183.251 386.461 183.199 387.412 182.759C387.885 182.562 388.314 182.273 388.674 181.909C389.035 181.545 389.319 181.113 389.511 180.637C389.702 180.162 389.797 179.653 389.79 179.141C389.783 178.628 389.675 178.122 389.47 177.652C389.008 176.711 388.197 175.989 387.21 175.64C386.223 175.29 385.139 175.341 384.189 175.781C383.713 175.975 383.282 176.263 382.919 176.626C382.557 176.99 382.271 177.423 382.078 177.9C381.885 178.376 381.789 178.886 381.797 179.4C381.804 179.914 381.914 180.421 382.121 180.892Z" fill="#211F54"/>
<path d="M369.818 172.236C370.495 172.479 372.194 169.094 376.024 167.157C379.854 165.219 383.679 165.718 383.858 165.032C383.961 164.72 383.106 164.157 381.4 163.828C379.145 163.516 376.85 163.91 374.827 164.954C372.824 165.968 371.192 167.589 370.164 169.587C369.499 171.083 369.496 172.137 369.818 172.236Z" fill="#211F54"/>
<path d="M410.004 154.817C410.708 154.987 412.062 151.478 415.678 149.115C419.295 146.752 423.151 146.885 423.261 146.182C423.325 145.863 422.398 145.356 420.678 145.239C418.393 145.164 416.141 145.799 414.232 147.059C412.334 148.265 410.873 150.05 410.063 152.151C409.534 153.706 409.67 154.747 410.004 154.817Z" fill="#211F54"/>
<path d="M409.004 189.684C408.905 189.461 406.308 190.256 402.173 191.724C401.141 192.124 400.064 192.422 399.602 191.817C399.14 191.212 398.88 189.947 398.779 188.552C398.501 185.697 398.218 182.748 397.895 179.575C396.535 166.863 395.008 156.575 394.501 156.631C393.994 156.688 394.677 167.062 396.046 179.794C396.395 182.919 396.742 185.9 397.069 188.757C397.262 190.063 397.27 191.658 398.516 192.882C398.836 193.155 399.214 193.352 399.621 193.458C400.029 193.563 400.455 193.575 400.867 193.493C401.487 193.371 402.087 193.165 402.65 192.879C406.674 191.134 409.102 189.906 409.004 189.684Z" fill="#211F54"/>
<path d="M421.697 186.603C421.061 186.887 423.164 191.071 421.085 195.86C419.007 200.648 414.338 202.439 414.607 203.045C414.729 203.318 416.013 203.351 417.962 202.434C420.431 201.224 422.396 199.182 423.511 196.667C424.578 194.249 424.662 191.51 423.744 189.032C422.965 187.224 421.972 186.432 421.697 186.603Z" fill="#211F54"/>
<path d="M399.388 141.109C400.382 141.877 403.702 139.065 408.297 136.835C412.891 134.605 417.092 133.556 417.093 132.308C417.07 131.713 415.873 131.169 413.864 131.108C411.255 131.13 408.685 131.746 406.349 132.909C404.013 134.072 401.972 135.752 400.38 137.822C399.219 139.453 398.934 140.743 399.388 141.109Z" fill="#211F54"/>
<path d="M362.827 154.987C363.945 155.518 366.148 153.265 369.313 151.6C372.478 149.934 375.502 149.203 375.666 147.968C375.707 147.381 374.847 146.723 373.245 146.493C371.152 146.269 369.043 146.706 367.211 147.742C365.354 148.732 363.846 150.27 362.894 152.148C362.248 153.659 362.333 154.747 362.827 154.987Z" fill="#211F54"/>
<path d="M410.36 74.2098C409.47 73.8618 408.553 73.5138 407.58 73.1936C399.822 70.4094 391.105 68.878 384.431 73.3746C380.594 75.95 378.147 80.1821 374.463 82.9942C369.486 86.795 362.868 87.602 357.39 90.637C354.113 92.488 351.325 95.096 349.257 98.244C347.19 101.392 345.903 104.988 345.503 108.735C344.933 114.554 346.476 120.846 343.751 125.997C342.486 128.391 338.19 130.062 336.703 132.303C336.703 132.303 334.047 151.236 348.548 150.401L350.369 148.856L364.592 130.02C369.333 128.419 374.213 127.236 376.284 122.879C377.674 119.997 377.285 116.517 377.48 113.287L385.085 104.238C387.49 103.639 390.145 103.417 392.537 102.846C395.369 102.204 398.042 100.997 400.397 99.297C402.753 97.597 404.741 95.438 406.244 92.951C407.747 90.463 408.734 87.698 409.145 84.82C409.556 81.9417 409.383 79.0102 408.636 76.2006L410.36 74.2098Z" fill="#211F54"/>
<path d="M386.531 95.927C389.728 93.31 396.179 87.755 396.777 83.746C398.084 75.0452 403.562 67.1379 411.403 64.2562C415.497 62.871 419.928 62.8493 424.035 64.1942C428.142 65.5391 431.705 68.1785 434.19 71.718C443.477 67.8201 455.044 69.7691 463.191 76.6183C467.297 80.1603 470.48 84.65 472.464 89.701C474.448 94.751 475.173 100.208 474.578 105.602C474.23 108.387 473.535 111.282 474.578 113.955C475.968 117.213 479.402 118.744 482.238 120.707C489.982 126.039 493.931 136.229 493.764 145.765C493.597 155.301 492.29 159.13 487.911 162.888C479.319 170.267 497.81 187.501 481.307 194.587L451.36 136.285L451.29 136.396C450.697 137.504 449.802 138.42 448.71 139.039C447.617 139.657 446.371 139.953 445.117 139.89C428.434 138.818 429.504 121.292 432.827 117.992C427.847 116.566 423.068 114.513 418.605 111.881C414.197 109.097 406.718 103.612 405.188 98.461C401.796 100.034 385.126 97.069 386.531 95.927Z" fill="#211F54"/>
<path d="M451.402 136.131C451.763 135.742 466.945 122.781 474.383 140.893C481.821 159.004 462.121 162.735 461.871 162.234C461.62 161.733 451.402 136.131 451.402 136.131Z" fill="#FFBE9D"/>
<path d="M464.581 153.101C464.581 153.004 464.984 153.185 465.624 153.213C466.505 153.223 467.356 152.894 468.001 152.294C469.614 150.804 469.976 147.101 468.724 143.802C468.127 142.216 467.176 140.788 465.944 139.626C465.536 139.14 465.017 138.76 464.431 138.518C463.846 138.276 463.21 138.178 462.579 138.233C462.176 138.285 461.804 138.476 461.527 138.773C461.251 139.071 461.087 139.456 461.064 139.862C461.064 140.461 461.3 140.781 461.217 140.851C461.133 140.92 460.702 140.711 460.536 139.904C460.467 139.425 460.555 138.937 460.786 138.512C461.131 137.93 461.69 137.505 462.343 137.328C463.139 137.162 463.965 137.203 464.741 137.447C465.518 137.691 466.219 138.129 466.778 138.721C468.194 139.969 469.282 141.547 469.948 143.315C471.338 147.018 470.865 151.194 468.558 153.06C468.13 153.398 467.632 153.638 467.101 153.76C466.57 153.883 466.018 153.886 465.485 153.77C464.79 153.519 464.526 153.157 464.581 153.101Z" fill="#EB996E"/>
<path d="M419.953 229.612C419.953 229.612 442.323 215.691 451.707 198.985C451.707 198.985 454.641 224.364 424.416 238.062L419.953 229.612Z" fill="#EB996E"/>
<path d="M462.621 313.669L470.254 315.298L462.607 317.539C462.132 317.682 461.703 317.95 461.366 318.314C461.028 318.679 460.794 319.128 460.689 319.614L458.784 328.774L456.726 319.781C456.606 319.279 456.348 318.82 455.982 318.456C455.617 318.092 455.157 317.838 454.655 317.72L447.008 315.98L454.877 313.767C455.347 313.609 455.766 313.328 456.091 312.954C456.416 312.579 456.636 312.124 456.726 311.637L458.478 302.811L460.466 311.581C460.589 312.099 460.857 312.571 461.239 312.941C461.62 313.311 462.1 313.564 462.621 313.669Z" fill="white"/>
<path d="M445.257 336.764L448.663 337.488L445.257 338.476C445.043 338.541 444.85 338.661 444.699 338.825C444.547 338.989 444.442 339.191 444.395 339.409L443.547 343.488L442.601 339.479C442.551 339.254 442.438 339.048 442.276 338.886C442.113 338.723 441.908 338.61 441.684 338.56L438.277 337.794L441.781 336.806C441.998 336.741 442.194 336.619 442.348 336.453C442.502 336.286 442.609 336.081 442.657 335.859L443.435 331.933L444.311 335.831C444.362 336.061 444.479 336.272 444.647 336.437C444.814 336.603 445.026 336.716 445.257 336.764Z" fill="white"/>
<path d="M547.345 224.656L550.752 225.38L547.345 226.369C547.132 226.433 546.939 226.553 546.788 226.717C546.636 226.881 546.531 227.083 546.483 227.301L545.635 231.38L544.69 227.371C544.64 227.146 544.527 226.941 544.365 226.778C544.202 226.615 543.997 226.502 543.772 226.452L540.366 225.687L543.87 224.698C544.088 224.636 544.286 224.515 544.44 224.348C544.595 224.181 544.701 223.975 544.746 223.751L545.524 219.826L546.4 223.724C546.451 223.954 546.568 224.164 546.735 224.33C546.903 224.495 547.115 224.608 547.345 224.656Z" fill="white"/>
<path d="M524.086 534.529H145.036V554.158H524.086V534.529Z" fill="#4A4566"/>
<path d="M524.123 534.529H414.461V554.158H524.123V534.529Z" fill="#6E7191"/>
<path d="M169.505 554.173C169.338 553.895 169.19 553.606 169.06 553.309C168.782 552.753 168.379 551.917 167.851 550.957C165.125 545.821 161.515 541.207 157.187 537.328C156.353 536.576 155.672 535.936 155.199 535.588C154.934 535.398 154.691 535.178 154.476 534.933C154.752 535.107 155.017 535.297 155.269 535.504C155.769 535.866 156.478 536.437 157.312 537.175C161.745 540.99 165.387 545.639 168.031 550.859C168.532 551.862 168.921 552.683 169.158 553.268C169.294 553.561 169.41 553.863 169.505 554.173Z" fill="#8883A5"/>
<path d="M198.215 554.521C196.346 554.537 194.481 554.345 192.654 553.95C190.725 553.538 188.836 552.956 187.009 552.21C184.746 551.259 182.58 550.089 180.545 548.715C176.864 546.185 173.655 543.028 171.063 539.388C170.002 537.888 169.072 536.3 168.282 534.641C168.282 534.641 168.366 534.752 168.491 534.961C168.616 535.17 168.852 535.56 169.061 535.908C169.74 537.063 170.478 538.183 171.271 539.263C173.894 542.841 177.099 545.952 180.753 548.465C182.768 549.832 184.91 551.002 187.148 551.959C188.983 552.721 190.881 553.317 192.821 553.741C193.564 553.919 194.316 554.058 195.073 554.159C195.643 554.265 196.219 554.335 196.797 554.367L197.882 554.465L198.215 554.521Z" fill="#8883A5"/>
<path d="M224.728 544.525C224.728 544.525 223.018 544.72 219.904 544.748C218.347 544.748 216.442 544.748 214.231 544.567C213.133 544.484 211.951 544.372 210.7 544.219L208.781 543.955C208.099 543.885 207.43 543.721 206.793 543.467C206.449 543.354 206.131 543.173 205.858 542.934C205.586 542.694 205.365 542.402 205.208 542.075C205.079 541.698 205.071 541.289 205.186 540.907C205.301 540.525 205.532 540.189 205.848 539.945C206.488 539.478 207.224 539.159 208.003 539.012C208.767 538.804 209.546 538.595 210.352 538.428C217.539 536.785 224.977 536.562 232.249 537.774C234.274 538.088 236.272 538.553 238.228 539.166C239.261 539.494 240.143 540.18 240.716 541.101C240.964 541.591 241.106 542.129 241.132 542.678C241.159 543.228 241.069 543.776 240.869 544.289C240.518 545.329 239.834 546.224 238.923 546.836C238.033 547.415 237.043 547.821 236.003 548.033C233.973 548.479 231.971 548.827 229.997 549.161C226.191 549.811 222.345 550.192 218.486 550.303C211.931 550.591 205.4 549.327 199.425 546.614C195.408 544.76 191.823 542.085 188.9 538.762C188.108 537.886 187.379 536.956 186.717 535.978C186.259 535.282 186.036 534.92 186.036 534.92C186.036 534.92 186.3 535.268 186.759 535.936C187.439 536.911 188.182 537.842 188.984 538.72C191.939 541.954 195.526 544.546 199.522 546.335C205.479 549.007 211.979 550.242 218.499 549.941C222.34 549.818 226.168 549.432 229.955 548.785C231.93 548.451 233.946 548.089 235.948 547.658C236.937 547.444 237.879 547.053 238.728 546.502C239.583 545.918 240.226 545.073 240.563 544.094C240.746 543.619 240.826 543.11 240.8 542.602C240.774 542.093 240.641 541.596 240.41 541.142C239.878 540.274 239.048 539.631 238.075 539.333C236.136 538.727 234.157 538.262 232.152 537.941C224.918 536.745 217.522 536.953 210.366 538.553C209.56 538.72 208.781 538.929 208.031 539.124C207.277 539.258 206.564 539.563 205.945 540.015C205.668 540.231 205.464 540.527 205.359 540.863C205.255 541.199 205.256 541.559 205.361 541.894C205.623 542.523 206.123 543.024 206.751 543.286C207.376 543.532 208.031 543.691 208.698 543.76L210.617 544.038C211.854 544.191 213.036 544.317 214.134 544.4C216.331 544.581 218.305 544.637 219.792 544.637C221.28 544.637 222.573 544.637 223.365 544.567L224.728 544.525Z" fill="#8883A5"/>
<path d="M291.837 535.866H291.309C290.961 535.866 290.461 535.754 289.807 535.768C287.967 535.718 286.128 535.924 284.343 536.381C281.696 537.071 279.143 538.081 276.739 539.388C273.796 541 270.947 542.775 268.202 544.706C265.255 546.724 262.419 548.617 259.707 550.135C257.32 551.515 254.782 552.618 252.144 553.42C250.367 553.962 248.524 554.257 246.667 554.297C245.989 554.321 245.311 554.298 244.637 554.228H245.165C245.665 554.253 246.166 554.253 246.667 554.228C248.508 554.144 250.33 553.821 252.089 553.267C254.695 552.44 257.204 551.329 259.568 549.954C262.266 548.423 265.13 546.529 268.035 544.511C270.788 542.572 273.653 540.796 276.613 539.193C279.036 537.884 281.615 536.888 284.288 536.228C286.107 535.787 287.98 535.609 289.849 535.699C290.515 535.711 291.179 535.766 291.837 535.866Z" fill="#8883A5"/>
<path d="M317.697 544.553L316.654 544.33C315.655 544.123 314.642 543.997 313.623 543.954C312.014 543.868 310.401 543.999 308.827 544.344C307.841 544.553 306.874 544.842 305.935 545.207C304.862 545.514 303.92 546.164 303.251 547.059C302.956 547.588 302.841 548.199 302.923 548.799C303.006 549.4 303.282 549.957 303.71 550.386C304.623 551.366 305.772 552.094 307.047 552.502C309.872 553.415 312.903 553.478 315.764 552.683C317.323 552.31 318.849 551.807 320.324 551.179C321.893 550.609 323.358 549.786 324.662 548.743C325.323 548.205 325.86 547.528 326.234 546.762C326.609 545.995 326.812 545.156 326.831 544.302C326.772 542.528 326.07 540.835 324.857 539.541C323.66 538.218 322.12 537.254 320.408 536.757C318.745 536.29 317.011 536.129 315.291 536.284C312.03 536.657 308.832 537.462 305.782 538.678C300.545 540.571 295.476 542.899 290.628 545.639C287.361 547.486 284.196 549.508 281.146 551.694C280.061 552.474 279.241 553.087 278.685 553.504C278.129 553.922 277.809 554.145 277.809 554.145C277.809 554.145 278.935 553.184 281.076 551.597C284.113 549.378 287.269 547.329 290.53 545.458C295.37 542.682 300.441 540.33 305.684 538.428C308.756 537.199 311.978 536.385 315.264 536.005C317.02 535.852 318.79 536.012 320.491 536.479C322.243 536.976 323.828 537.938 325.079 539.263C326.341 540.61 327.068 542.372 327.123 544.219C327.102 545.113 326.888 545.992 326.494 546.795C326.1 547.598 325.537 548.305 324.843 548.868C323.517 549.931 322.029 550.772 320.435 551.36C318.943 551.98 317.404 552.483 315.834 552.864C312.919 553.657 309.837 553.584 306.964 552.655C305.655 552.226 304.478 551.469 303.543 550.455C303.107 549.955 302.819 549.343 302.709 548.687C302.612 548.054 302.745 547.407 303.085 546.864C303.777 545.937 304.754 545.262 305.865 544.943C306.815 544.586 307.791 544.302 308.785 544.093C310.372 543.774 311.993 543.657 313.609 543.745C314.635 543.804 315.654 543.953 316.654 544.191C317.405 544.441 317.697 544.553 317.697 544.553Z" fill="#8883A5"/>
<path d="M348.825 554.047C348.825 554.047 348.825 553.685 348.825 553.031C348.883 552.104 348.883 551.174 348.825 550.247C348.626 547.193 347.706 544.231 346.142 541.602C344.551 538.988 342.244 536.887 339.497 535.546C338.347 535.021 337.144 534.62 335.91 534.349C337.183 534.462 338.426 534.802 339.58 535.351C342.401 536.667 344.771 538.788 346.392 541.448C347.984 544.113 348.891 547.131 349.034 550.233C349.132 551.508 349.061 552.79 348.825 554.047Z" fill="#8883A5"/>
<path d="M389.339 553.866C387.367 553.597 385.416 553.192 383.5 552.655C381.411 552.092 379.354 551.414 377.341 550.623C374.889 549.623 372.498 548.479 370.181 547.198C365.991 544.824 362.083 541.985 358.53 538.734C357.14 537.481 356.111 536.423 355.416 535.657L354.609 534.78C354.429 534.585 354.345 534.474 354.345 534.474C354.345 534.474 354.456 534.557 354.651 534.752L355.499 535.588C356.208 536.325 357.293 537.356 358.655 538.581C364.203 543.577 370.572 547.575 377.48 550.4C379.476 551.202 381.514 551.899 383.583 552.488C385.349 552.989 386.809 553.337 387.754 553.546L388.922 553.783C389.064 553.793 389.204 553.821 389.339 553.866Z" fill="#8883A5"/>
<path d="M417.798 548.381L417.409 548.2C417.159 548.075 416.825 547.852 416.339 547.629C414.995 546.973 413.6 546.428 412.168 546.001C410.047 545.37 407.881 544.904 405.689 544.609C403.228 544.247 400.489 544.01 397.625 543.634C391.897 542.924 386.781 541.212 383.722 538.943C382.489 538.089 381.368 537.083 380.386 535.95C379.718 535.128 379.398 534.641 379.398 534.641C379.398 534.641 379.51 534.738 379.69 534.947C379.871 535.156 380.107 535.49 380.469 535.88C381.478 536.974 382.612 537.946 383.847 538.776C386.92 540.975 391.981 542.632 397.75 543.342C400.6 543.718 403.311 543.968 405.814 544.344C408.012 544.631 410.184 545.096 412.307 545.736C413.748 546.18 415.144 546.758 416.478 547.462C417.27 548.047 417.798 548.381 417.798 548.381Z" fill="#8883A5"/>
<rect x="-27" y="-16" width="1012" height="570" rx="53" fill="white" fill-opacity="0.5"/>
<g clip-path="url(#clip1_1_323)" filter="url(#filter0_d_1_323)">
<path d="M479 368C533.676 368 578 323.676 578 269C578 214.324 533.676 170 479 170C424.324 170 380 214.324 380 269C380 323.676 424.324 368 479 368Z" fill="white"/>
<g filter="url(#filter1_i_1_323)">
<path d="M466.484 244.647C461.264 241.576 454.683 245.34 454.683 251.396V288.215C454.683 294.271 461.263 298.035 466.484 294.965L497.778 276.557C502.926 273.53 502.926 266.086 497.779 263.058L466.484 244.647Z" fill="#FF0000" fill-opacity="0.01"/>
</g>
<path d="M463.165 238.714C457.944 235.643 451.363 239.406 451.363 245.463V292.538C451.363 298.595 457.944 302.359 463.164 299.288L503.176 275.753C508.324 272.725 508.324 265.282 503.177 262.254L463.165 238.714Z" fill="#0075FF"/>
</g>
</g>
</g>
<defs>
<filter id="filter0_d_1_323" x="315" y="129" width="328" height="328" filterUnits="userSpaceOnUse" color-interpolation-filters="sRGB">
<feFlood flood-opacity="0" result="BackgroundImageFix"/>
<feColorMatrix in="SourceAlpha" type="matrix" values="0 0 0 0 0 0 0 0 0 0 0 0 0 0 0 0 0 0 127 0" result="hardAlpha"/>
<feOffset dy="24"/>
<feGaussianBlur stdDeviation="32.5"/>
<feColorMatrix type="matrix" values="0 0 0 0 0.0784314 0 0 0 0 0.0784314 0 0 0 0 0.168627 0 0 0 0.16 0"/>
<feBlend mode="normal" in2="BackgroundImageFix" result="effect1_dropShadow_1_323"/>
<feBlend mode="normal" in="SourceGraphic" in2="effect1_dropShadow_1_323" result="shape"/>
</filter>
<filter id="filter1_i_1_323" x="454.683" y="243.554" width="46.9564" height="62.5039" filterUnits="userSpaceOnUse" color-interpolation-filters="sRGB">
<feFlood flood-opacity="0" result="BackgroundImageFix"/>
<feBlend mode="normal" in="SourceGraphic" in2="BackgroundImageFix" result="shape"/>
<feColorMatrix in="SourceAlpha" type="matrix" values="0 0 0 0 0 0 0 0 0 0 0 0 0 0 0 0 0 0 127 0" result="hardAlpha"/>
<feOffset dy="10"/>
<feGaussianBlur stdDeviation="14"/>
<feComposite in2="hardAlpha" operator="arithmetic" k2="-1" k3="1"/>
<feColorMatrix type="matrix" values="0 0 0 0 0 0 0 0 0 0.46 0 0 0 0 1 0 0 0 0.26 0"/>
<feBlend mode="normal" in2="shape" result="effect1_innerShadow_1_323"/>
</filter>
<clipPath id="clip0_1_323">
<rect x="-27" y="-16" width="1012" height="570" rx="53" fill="white"/>
</clipPath>
<clipPath id="clip1_1_323">
<rect width="198" height="198" fill="white" transform="translate(380 170)"/>
</clipPath>
</defs>
</svg>
